<?xml version="1.0" standalone="no"?>
<!DOCTYPE svg PUBLIC "-//W3C//DTD SVG 20010904//EN"
 "http://www.w3.org/TR/2001/REC-SVG-20010904/DTD/svg10.dtd">
<svg version="1.0" xmlns="http://www.w3.org/2000/svg"
 width="1280.000000pt" height="1085.000000pt" viewBox="0 0 1280.000000 1085.000000"
 preserveAspectRatio="xMidYMid meet">
<metadata>
Created by potrace 1.15, written by Peter Selinger 2001-2017
</metadata>
<g transform="translate(0.000000,1085.000000) scale(0.100000,-0.100000)"
fill="#000000" stroke="none">
<path d="M1361 9372 l-1354 -1477 304 -7 c367 -9 5108 -32 5115 -25 3 2 -161
186 -363 408 -202 222 -801 881 -1332 1464 -530 583 -976 1072 -990 1087 l-26
28 -1354 -1478z"/>
<path d="M7557 9476 c-64 -22 -191 -99 -219 -133 -11 -15 -11 -16 7 -9 114 43
285 57 385 32 214 -55 341 -245 366 -547 7 -89 8 -92 17 -54 6 22 10 105 10
185 1 131 -2 153 -26 227 -51 153 -159 272 -280 308 -75 22 -179 19 -260 -9z"/>
<path d="M8562 9435 c-64 -18 -128 -54 -191 -109 -51 -44 -126 -126 -101 -110
8 5 47 30 85 55 100 66 174 91 265 92 57 1 87 -4 123 -21 63 -28 140 -89 200
-158 26 -31 47 -53 47 -51 0 19 -48 111 -86 164 -88 124 -213 174 -342 138z"/>
<path d="M7104 9311 c-51 -30 -89 -71 -133 -143 -22 -37 -23 -37 -51 -23 -43
22 -101 28 -149 15 -54 -14 -125 -79 -158 -144 l-25 -49 39 30 c71 56 102 68
183 68 65 0 82 -4 130 -30 30 -17 80 -55 112 -86 32 -32 58 -52 58 -45 0 29
-53 121 -97 167 l-47 51 24 19 c88 69 185 92 271 64 67 -22 159 -111 207 -200
30 -54 32 -56 27 -25 -23 134 -95 270 -173 324 -34 24 -55 31 -105 34 -54 3
-68 -1 -113 -27z"/>
<path d="M11711 9324 c-106 -28 -210 -101 -306 -214 -29 -36 -52 -66 -50 -68
1 -2 25 12 52 32 73 52 166 93 245 107 218 39 415 -96 558 -381 44 -88 125
-319 136 -390 4 -22 11 -43 17 -47 7 -4 8 42 4 143 -13 314 -96 541 -253 697
-64 63 -127 100 -209 122 -72 18 -123 18 -194 -1z"/>
<path d="M9022 9089 c-134 -20 -288 -92 -432 -200 -100 -76 -108 -89 -31 -49
270 136 529 164 728 79 144 -62 305 -230 432 -454 28 -49 51 -82 51 -73 0 9
-11 55 -25 103 -123 425 -390 644 -723 594z"/>
<path d="M6314 9056 c-51 -22 -100 -73 -125 -128 -21 -46 -24 -68 -24 -163 1
-92 5 -121 26 -181 l26 -70 -25 -35 c-66 -94 -90 -229 -58 -330 16 -50 82
-156 92 -147 2 3 -6 31 -17 64 -29 79 -31 216 -5 294 21 63 67 147 103 190 31
38 19 38 -39 1 l-46 -30 -7 82 c-12 141 17 247 86 322 48 52 115 82 206 93
l68 8 -58 22 c-66 25 -155 29 -203 8z"/>
<path d="M9979 8997 c-93 -26 -196 -111 -253 -208 l-20 -33 35 23 c118 78 257
119 350 101 92 -18 189 -86 254 -180 16 -22 30 -39 31 -37 7 6 -28 111 -52
160 -71 139 -213 211 -345 174z"/>
<path d="M10883 8955 c-72 -33 -116 -69 -169 -138 -51 -68 -56 -87 -15 -58 16
12 64 38 107 58 64 31 91 37 158 41 121 6 179 -19 276 -117 l75 -76 -90 -6
c-118 -8 -186 -41 -296 -146 -44 -42 -77 -78 -75 -80 2 -2 26 12 53 33 26 20
82 53 123 73 71 34 81 36 175 36 128 0 168 -19 288 -136 48 -47 87 -84 87 -82
0 2 -16 35 -36 74 -41 83 -99 150 -170 195 -40 26 -53 40 -58 66 -10 53 -61
152 -101 196 -82 92 -220 120 -332 67z"/>
<path d="M6683 8559 c-56 -13 -127 -78 -164 -150 -16 -32 -29 -61 -29 -65 0
-4 20 12 44 34 68 63 120 86 196 86 79 0 129 -21 223 -93 l68 -52 -26 52 c-70
138 -196 213 -312 188z"/>
<path d="M7942 8550 c-48 -11 -47 -15 13 -34 67 -21 149 -93 188 -164 34 -63
63 -172 72 -277 9 -92 19 -81 36 40 35 256 -124 480 -309 435z"/>
<path d="M7720 8539 c-24 -10 -23 -11 27 -28 155 -52 238 -186 265 -425 l12
-101 13 50 c21 77 12 255 -16 326 -27 70 -92 146 -146 170 -44 20 -115 24
-155 8z"/>
<path d="M12002 8369 c-35 -11 -62 -22 -60 -25 3 -2 41 -10 86 -18 244 -43
392 -248 392 -544 l0 -79 -59 30 c-61 30 -157 45 -207 33 -25 -7 -22 -10 54
-47 205 -100 314 -271 330 -522 l8 -112 22 69 c58 180 25 368 -88 490 l-38 41
25 85 c67 226 12 453 -136 562 -83 60 -210 75 -329 37z"/>
<path d="M9173 7990 c-22 -5 -61 -19 -85 -31 l-43 -23 80 -8 c93 -8 149 -26
209 -67 90 -62 152 -163 179 -291 19 -89 31 -57 25 68 -5 103 -23 160 -75 235
-60 87 -185 137 -290 117z"/>
<path d="M7528 7815 c-54 -36 -98 -66 -98 -69 0 -2 7 -20 15 -40 10 -24 20
-34 28 -30 17 11 181 116 185 119 1 1 -6 20 -15 43 l-18 41 -97 -64z"/>
<path d="M6044 6988 c-556 -480 -1019 -879 -1030 -887 -10 -8 6 12 37 45 31
32 343 364 693 737 l637 678 -22 35 -22 36 -47 -49 c-26 -26 -375 -397 -775
-823 -1038 -1105 -1195 -1270 -1206 -1270 -25 0 -4 -18 34 -30 23 -7 456 -183
962 -392 1603 -662 2445 -1010 3330 -1375 473 -195 902 -372 952 -393 l93 -39
11 41 c6 22 7 44 2 48 -4 4 -199 87 -433 183 -234 96 -830 342 -1325 547 -495
205 -1107 458 -1360 562 -253 104 -469 194 -480 199 l-20 10 20 -5 c11 -2 483
-167 1048 -366 566 -199 1032 -358 1037 -354 4 5 10 25 14 44 l6 35 -968 339
c-890 313 -1062 374 -1007 361 11 -2 286 -83 610 -179 3170 -936 3517 -1038
3520 -1034 1 2 6 22 10 44 6 41 6 42 -27 53 -18 5 -836 247 -1818 536 -982
290 -1960 578 -2175 641 -214 64 -407 120 -428 126 -20 6 -35 13 -33 15 2 3
285 -56 628 -131 785 -170 3275 -710 4523 -981 523 -113 957 -207 965 -208 10
-1 16 11 21 41 3 24 3 45 0 46 -3 2 -1068 234 -2366 516 -3964 859 -4109 891
-4115 897 -3 3 9 3 25 -1 17 -3 640 -92 1385 -196 745 -105 1469 -207 1608
-226 139 -20 255 -35 256 -33 2 2 6 23 10 46 l6 41 -68 11 c-59 10 -1692 240
-2387 337 -248 34 -326 49 -210 39 33 -3 681 -55 1440 -115 759 -60 1410 -112
1448 -116 l67 -6 0 45 0 46 -42 5 c-24 4 -864 71 -1868 151 -1004 80 -1832
147 -1840 148 -21 5 34 10 1170 101 l1005 81 0 45 0 45 -45 -3 c-25 -1 -470
-36 -990 -78 -1280 -101 -1304 -102 -680 -29 212 24 743 87 1180 140 437 52
966 115 1175 139 1819 216 3077 366 3110 371 l40 5 -3 45 c-2 25 -8 45 -14 45
-5 0 -1315 -155 -2910 -345 -1595 -190 -2906 -344 -2912 -342 -6 2 7 7 29 11
36 7 645 149 2210 516 308 72 724 169 925 216 201 47 366 87 368 88 7 8 -12
86 -21 86 -6 0 -106 -22 -221 -50 -116 -27 -634 -148 -1151 -269 -517 -121
-1056 -247 -1199 -281 -142 -33 -260 -59 -262 -58 -1 2 259 81 579 176 320 95
942 280 1382 411 l800 238 -3 39 c-2 22 -7 42 -10 46 -4 3 -79 -16 -167 -42
-182 -55 -1226 -365 -2520 -750 -484 -144 -907 -270 -939 -281 -33 -10 -61
-17 -63 -15 -2 2 466 207 1039 456 574 249 1290 561 1592 692 303 131 552 240
554 242 9 9 -20 87 -31 83 -14 -5 -2145 -931 -2436 -1058 -112 -49 -206 -88
-208 -86 -2 2 50 29 114 59 174 82 2114 1008 2144 1024 25 13 26 15 16 54 -6
22 -14 40 -18 40 -4 0 -611 -289 -1350 -641 -1495 -713 -1538 -734 -1524 -721
6 5 638 402 1405 882 767 480 1397 874 1399 876 6 5 -26 79 -34 78 -4 -1 -538
-334 -1188 -740 -1387 -868 -1326 -830 -1307 -811 8 8 362 270 785 582 424
312 778 575 788 584 16 16 16 20 2 54 -10 24 -20 35 -27 31 -7 -4 -372 -274
-812 -599 -441 -325 -808 -595 -816 -599 -8 -5 1 5 20 21 19 17 420 362 890
768 470 406 857 739 859 741 6 5 -7 48 -21 67 -12 16 -107 -63 -1024 -855z"/>
<path d="M10589 7822 c-36 -10 -92 -33 -124 -52 -61 -37 -174 -141 -215 -200
l-25 -35 25 17 c60 42 169 100 220 115 79 24 200 22 272 -6 207 -80 373 -329
468 -705 l28 -109 6 59 c9 79 -9 279 -35 383 -73 294 -240 496 -447 540 -69
14 -93 13 -173 -7z"/>
<path d="M900 4380 l0 -3410 1780 0 1780 0 0 2170 0 2170 -393 2 -394 3 394
370 393 370 0 868 0 867 -1780 0 -1780 0 0 -3410z"/>
<path d="M7170 7589 c-52 -34 -98 -64 -102 -68 -10 -9 13 -81 26 -81 15 0 206
128 206 139 0 16 -22 71 -28 71 -4 0 -50 -28 -102 -61z"/>
<path d="M8278 7396 c-133 -64 -137 -68 -117 -124 l11 -31 130 65 129 65 -6
32 c-4 18 -10 37 -14 43 -4 7 -50 -10 -133 -50z"/>
<path d="M11720 7257 c3 -3 40 -28 82 -56 136 -91 224 -210 263 -356 17 -62
24 -250 11 -295 -7 -24 -6 -24 8 -6 54 67 82 258 56 375 -41 186 -184 322
-355 338 -39 3 -68 3 -65 0z"/>
<path d="M12605 7065 c121 -314 120 -498 -5 -655 -30 -38 -120 -110 -136 -110
-5 0 -20 25 -32 54 -23 52 -81 141 -88 134 -1 -2 6 -37 17 -78 67 -252 2 -490
-185 -682 -25 -26 -46 -50 -46 -53 0 -12 103 36 149 69 124 91 191 238 191
417 l0 97 34 6 c100 19 210 105 256 202 67 137 44 335 -57 485 -47 69 -108
141 -98 114z"/>
<path d="M9934 6805 c-78 -12 -148 -25 -155 -27 -9 -3 -13 -17 -10 -44 1 -21
4 -41 6 -43 2 -2 76 7 165 20 l161 24 -3 44 c-2 24 -7 45 -13 47 -5 1 -74 -8
-151 -21z"/>
<path d="M9438 6707 c-172 -33 -166 -29 -149 -97 l6 -26 163 31 163 30 -3 44
c-2 25 -7 45 -13 47 -5 1 -81 -12 -167 -29z"/>
<path d="M10570 5906 c0 -2 16 -28 36 -57 166 -246 193 -502 78 -744 -13 -27
-22 -51 -20 -53 2 -2 26 19 52 45 186 186 176 519 -21 719 -50 51 -125 105
-125 90z"/>
<path d="M11997 5864 c-4 -4 -7 -36 -7 -70 0 -153 -51 -407 -113 -558 -61
-149 -176 -294 -312 -392 -100 -73 -370 -184 -446 -184 -10 0 -21 -4 -24 -10
-9 -15 114 -12 228 5 363 55 608 285 693 650 15 63 19 117 18 250 -1 163 -20
325 -37 309z"/>
<path d="M8160 5705 l0 -45 150 0 150 0 0 45 0 45 -150 0 -150 0 0 -45z"/>
<path d="M7742 5693 l3 -48 110 0 110 0 3 48 3 47 -116 0 -116 0 3 -47z"/>
<path d="M10059 5663 c137 -269 146 -482 32 -705 -22 -43 -36 -78 -32 -78 5 0
32 21 60 46 96 87 142 200 142 349 0 108 -19 184 -68 278 -34 63 -142 187
-164 187 -5 0 9 -35 30 -77z"/>
<path d="M11882 4720 c-19 -94 -71 -226 -116 -293 -76 -114 -214 -186 -375
-195 -74 -4 -90 -7 -75 -16 11 -6 72 -11 149 -11 123 0 133 1 190 29 156 77
251 262 243 475 l-3 76 -13 -65z"/>
<path d="M12413 4495 c2 -11 14 -55 26 -98 75 -284 41 -496 -110 -677 -43 -52
-48 -61 -28 -55 161 47 269 216 269 420 -1 138 -45 272 -125 380 -20 28 -35
41 -32 30z"/>
<path d="M12191 4317 c27 -83 47 -189 54 -282 13 -166 -47 -349 -152 -462 -27
-29 -46 -53 -43 -53 4 0 27 7 53 16 132 45 236 225 237 407 0 134 -59 306
-133 392 l-35 40 19 -58z"/>
<path d="M10470 3726 c0 -7 -3 -27 -6 -43 l-6 -30 117 -33 c68 -20 119 -29
125 -24 4 5 10 25 12 44 l3 35 -110 32 c-124 37 -135 38 -135 19z"/>
<path d="M12611 3499 c124 -384 40 -733 -229 -955 -76 -62 -232 -143 -341
-175 -68 -20 -72 -23 -50 -32 13 -5 76 -10 139 -10 97 0 127 4 193 25 208 69
369 250 427 482 36 145 25 344 -29 499 -23 65 -108 232 -127 248 -7 5 1 -31
17 -82z"/>
<path d="M11163 3229 c-126 -319 -323 -447 -559 -363 -35 13 46 -63 99 -92 43
-24 64 -29 122 -29 82 0 123 18 194 81 50 45 106 141 134 229 16 50 39 206 32
214 -2 2 -12 -16 -22 -40z"/>
<path d="M10138 3033 c-82 -200 -5 -448 167 -535 l46 -24 5 -99 c11 -225 77
-370 196 -429 64 -32 118 -33 195 -5 46 18 76 39 142 106 46 46 82 86 79 88
-3 3 -25 -6 -49 -20 -99 -57 -218 -78 -301 -53 -90 27 -179 146 -227 302 -31
101 -30 109 19 101 22 -4 54 -4 71 0 l32 7 -71 38 c-190 100 -268 225 -281
450 l-6 115 -17 -42z"/>
<path d="M11987 2836 c-9 -101 -34 -192 -77 -281 -49 -102 -111 -167 -197
-207 -56 -27 -78 -31 -148 -32 -46 -1 -86 2 -89 5 -4 3 5 35 18 70 28 74 49
204 44 264 -4 45 -1 51 -49 -80 -38 -102 -106 -210 -165 -264 -83 -77 -206
-115 -301 -93 -24 5 -43 7 -43 3 0 -10 48 -45 95 -68 117 -59 255 -19 343 98
l35 47 51 -33 c143 -91 274 -84 379 22 101 100 143 240 134 442 -6 156 -21
207 -30 107z"/>
<path d="M1570 445 l0 -445 1125 0 1125 0 0 445 0 445 -1125 0 -1125 0 0 -445z"/>
</g>
</svg>
